<?xml version="1.0" encoding="UTF-8"?>
<svg id="Capa_2" data-name="Capa 2" xmlns="http://www.w3.org/2000/svg" viewBox="0 0 1045.06 457.21">
  <g id="Capa_1-2" data-name="Capa 1">
    <g>
      <path d="m0,298.75c21.07-48.28,42.18-96.54,63.19-144.85,18.94-43.55,37.69-87.18,56.68-130.69,8.44-19.34,28.7-28.05,46.75-20.51,20.89,8.74,28.35,26.93,19.06,48.3-30.31,69.75-60.87,139.39-91.34,209.08-1.19,2.72-2.2,5.53-3.54,8.17-3.52,6.9-2.25,10.08,6.23,9.97,22.64-.31,45.29-.38,67.92.03,8.69.16,10.65-3.78,10.58-11.48-.26-27.46-.16-54.93-.07-82.4.08-23.06,14.21-37.37,36.45-37.15,21.44.21,35.7,14.76,35.78,36.79.1,27.09.34,54.2-.15,81.28-.17,9.42,2.37,13.93,12.47,12.98,7.52-.7,14.85.96,21.22,5.32,11.01,7.53,16.7,17.76,14.81,31.35-1.77,12.71-12.61,23.87-26.38,27.08-3.93.92-8.09,1.25-12.13,1.18-7.1-.13-9.97,2.98-9.86,10.07.23,14.47.19,28.95-.07,43.42-.36,20.53-14.43,33.57-36.07,33.77-20.85.19-35.66-13.7-36.04-34.12-.23-12.62-.04-25.24-.08-37.86-.05-15.18-.08-15.23-15.76-15.24-37.49-.02-74.99-.6-112.46.24-20.91.47-37.01-5.87-47.22-24.69,0-6.68,0-13.36,0-20.05Zm107.74,32.8c22.26,0,44.53.31,66.78-.15,9.45-.2,13.44,2.84,13.12,12.72-.55,16.68-.3,33.39-.06,50.08.21,14.57,9.49,23.87,23.49,24.09,14.35.23,24.49-9.45,24.75-24.15.26-14.84.06-29.68.08-44.52q.02-17.92,17.49-18.07c5.59-.04,11.12-.13,16.4-2.34,9.11-3.81,15.09-10.49,13.92-20.45-1.19-10.17-8.15-16.52-18.4-18.15-5.08-.81-10.41-.92-15.54-.43-10.71,1.02-14.25-3.42-14.07-14.05.53-30.78.08-61.58.21-92.37.05-11.53-5.12-19.1-16.04-22.53-17.85-5.6-32.09,4.62-32.27,23.63-.3,31.16-.17,62.33-.08,93.49.02,6.65-.94,11.75-9.4,11.72-33.39-.12-66.78-.05-100.17.01-7.94.01-8.43-3.5-5.6-9.89,9.02-20.34,17.66-40.84,26.54-61.24,25.47-58.48,51.09-116.89,76.41-175.43,5.02-11.62.52-22.08-10.78-27.78-11.36-5.72-24.2-2.92-30.51,7.11-2.74,4.36-4.68,9.25-6.75,14.01-25.86,59.53-51.75,119.03-77.46,178.62-12.04,27.92-24.06,55.86-35.39,84.06-5.27,13.1.47,24.16,13.53,29.49,4.9,2,9.99,2.54,15.25,2.52,21.52-.07,43.03-.03,64.55,0Z"/>
      <path d="m520.34,457.21c-46.93-2.21-97.79-2.23-148-11.08-6.53-1.15-12.93-3.23-19.24-5.31-3.09-1.02-6.61-2.66-6.71-6.61-.12-4.67,4.02-5.81,7.39-7.15,3.09-1.23,6.32-2.55,9.57-2.81,11.38-.91,12.41-6.93,10.15-16.69-6.95-29.93-4.89-59.68,3.81-89,13.71-46.2,23.96-93.52,41.49-138.47,16.05-41.18,43.99-72.25,87.2-86.31,34.72-11.3,69.7-7.6,104,2.78,34.32,10.39,65.28,26.59,87.41,56.12,28.11,37.52,32.87,79.98,22.33,123.89-10.81,45.04-24.4,89.42-37.4,133.91-2.6,8.9-1.31,13.29,8.04,14.5,1.82.23,3.66.76,5.35,1.47,3.68,1.56,8.43,2.61,8.29,7.7-.12,4.34-4.28,5.78-7.68,7.13-13.23,5.27-27.27,7.32-41.26,8.68-43.54,4.22-87.21,6.38-134.74,7.25Zm104.96-33.62c10.02,0,20.04-.19,30.05.07,6.45.16,10.37-2.18,12.32-8.61,14.82-48.99,30.44-97.78,41.49-147.79,6.38-28.88,3.86-57.5-8.06-85-28.27-65.21-127.52-93.1-181.04-79.76-42.26,10.54-71.1,37.26-86.96,76.25-21.54,52.96-34.76,108.74-48.71,164.1-5.98,23.72-4.18,47.89,3.58,71.36,1.58,4.77,3.28,9.24,9.44,9.25,20.78.03,41.55.08,62.33.06,5.19,0,6.95-2.3,3.86-6.94-15.28-22.96-14.53-47.88-7.64-72.88,11.73-42.55,23.71-85.05,37.01-127.13,7.4-23.4,21.56-42.29,46.45-50.39,19.92-6.48,38.9-1.55,57.59,5.17,29.11,10.46,44.53,32.78,44.93,63.54.32,24.3-8.08,46.72-15.16,69.24-11.86,37.73-17.06,77.7-37.16,112.71-3,5.23-.17,6.66,4.48,6.68,10.39.05,20.78.02,31.17.05Zm-99.17-11.5s0,.03,0,.04c12.99,0,26.03-.74,38.94.23,10.85.81,16.3-3.94,20.25-13.23,7.44-17.5,12.1-35.82,17.17-54.03,8.65-31.07,19.3-61.61,25.61-93.3,4.35-21.85,2.49-43.04-16.37-57.78-21.97-17.16-47.36-23.68-74.25-13.59-21.6,8.11-29.66,28.28-35.71,48.38-11.99,39.77-23.18,79.79-34.35,119.8-4.77,17.1-5.66,34.3,1.29,51.32,3.48,8.54,8.56,12.94,18.48,12.34,12.94-.79,25.96-.19,38.95-.19Z"/>
      <path d="m848.07,346.15c-20.78,0-41.56.14-62.33-.03-27.8-.23-44.03-22.72-33.63-48.45,15.99-39.53,33.24-78.55,50.14-117.71,21.6-50.05,43.56-99.95,64.98-150.08,6.45-15.1,16.72-24.67,33.29-25.28,14.72-.55,26.66,5.5,34.19,18.79,5.78,10.2,5.2,20.38.56,30.93-31.3,71.32-62.46,142.7-93.65,214.08-4.94,11.29-4.2,12.49,8.43,12.57,20.41.12,40.82-.32,61.22.19,9.62.24,13.13-3.01,12.94-12.82-.51-26.7-.27-53.43-.17-80.14.09-22.71,14.6-37.02,36.94-36.75,21.68.27,35.55,14.61,35.54,36.9,0,26.69.1,53.38-.32,80.06-.14,8.91,2.94,12.29,12.1,12.9,22.17,1.47,36.12,14.02,36.72,31.49.63,18.32-12.49,33.05-31.51,33.07-19.97.02-17.04,3.62-17.18,18.6-.11,12.24.16,24.49-.1,36.73-.41,19.51-14.22,32.92-34.13,33.48-20.98.59-37.07-12.82-37.9-32.45-.63-14.82-.54-29.69-.08-44.51.27-8.61-2.7-11.9-11.52-11.71-21.51.45-43.04.15-64.56.15Zm6.75-11.79c23.01,0,46.03.24,69.03-.12,9.07-.14,12.6,3.24,12.37,12.42-.43,17.43-.48,34.9.17,52.32.56,14.79,10.42,23.85,24.15,23.65,14.54-.2,23.82-9.62,24-24.82.2-16.7.44-33.41-.05-50.1-.3-10.21,3.84-14.28,13.84-13.45,4.79.4,9.66.22,14.46-.13,10.96-.82,19.47-8.86,20.17-18.72.7-9.83-6.86-18.6-18.24-20.38-5.09-.8-10.36-.51-15.55-.61-13.39-.23-14.48-1.17-14.52-14.75-.1-30.06-.04-60.13-.04-90.19,0-5.99-.23-11.78-4.56-16.72-7.08-8.08-17.72-10.92-28.3-7.42-10.62,3.51-15.5,11.06-15.54,21.84-.13,31.55-.29,63.1.02,94.64.09,8.87-2.69,12.79-12.07,12.69-31.92-.33-63.84-.19-95.76-.06-7.81.03-11.14-1.6-7.26-10.33,18.38-41.36,36.34-82.91,54.44-124.4,16.02-36.72,32.19-73.38,47.99-110.19,6.16-14.36,1.05-25.86-13.07-31.48-13.35-5.32-25.01.94-32.61,18.43-20.85,47.98-41.38,96.1-62.12,144.13-16.77,38.82-34.01,77.44-50.35,116.44-9.75,23.26-.11,37.1,24.84,37.25,21.53.13,43.05.03,64.58.05Z"/>
    </g>
  </g>
</svg>